<svg xmlns="http://www.w3.org/2000/svg" viewBox="0 0 32 32" fill="none">
  <rect width="32" height="32" rx="8" fill="#2E4F4F"/>
  <path d="M9 14c0-2.5 3.1-4.5 7-4.5s7 2 7 4.5-3.1 4.5-7 4.5-7-2-7-4.5Z" fill="#BC6C25"/>
  <path d="M10.5 14.2c.4-1.6 2.8-2.9 5.5-2.9 1.4 0 2.7.3 3.7.9-.7-.9-2.3-1.5-4.2-1.5-3.2 0-5.8 1.5-5.8 3.3 0 .3.1.6.2.9.2-.3.4-.5.6-.7Z" fill="#FDF4EC" opacity=".55"/>
  <path d="M23.5 13.5h1.8c1.2 0 2.2 1 2.2 2.2s-1 2.2-2.2 2.2h-1.3" stroke="#F0EAE1" stroke-width="1.6" stroke-linecap="round"/>
  <path d="M11 19.5h10c.4 2.8-1.8 5.5-5 5.5s-5.4-2.7-5-5.5Z" fill="#BC6C25"/>
  <path d="M14 8.5c0-1 .6-1.8 1-2.3M17.5 8.2c0-1.2.8-2.1 1.2-2.7" stroke="#F0EAE1" stroke-width="1.4" stroke-linecap="round"/>
</svg>
