<svg xmlns="http://www.w3.org/2000/svg" viewBox="0 0 32 32">
  <rect width="32" height="32" rx="7" fill="#FAF7F2"/>
  <!-- B — bold espresso, matching .logo-bold -->
  <path fill="#1C1613" d="M5.8 6.8h5.4c2.7 0 4.4 1.25 4.4 3.3 0 1.25-.75 2.3-1.95 2.75 1.55.4 2.5 1.6 2.5 3.3 0 2.25-1.8 3.7-4.7 3.7H5.8V6.8zm2.7 2.2v3.2h2.55c1.2 0 1.9-.55 1.9-1.55s-.7-1.65-1.95-1.65H8.5zm0 5.35v3.55h2.85c1.4 0 2.2-.7 2.2-1.8s-.8-1.75-2.25-1.75H8.5z"/>
  <!-- A — light terracotta, matching .logo-light -->
  <path fill="#BC6C25" fill-rule="evenodd" d="M22.55 19.85h2.2L20.5 6.8h-2.35l-4.25 13.05h2.2l.95-3.05h4.55l.95 3.05zm-4.05-4.9 1.55-4.95 1.55 4.95h-3.1z"/>
</svg>
